<svg xmlns="http://www.w3.org/2000/svg" width="400" height="600"><rect width="400" height="600" x="0" y="0" fill="#FFFFFF" id="background"/><g transform="translate(10,10)" id="visualization"><g><rect x="375" y="0" height="13.655660377358487" width="5" fill="black"><title>Modica: 772</title></rect><rect x="375" y="18.655660377358487" height="14.416273584905667" width="5" fill="black"><title>Scicli: 815</title></rect><rect x="375" y="38.071933962264154" height="15.10613207547172" width="5" fill="black"><title>Cefal: 854</title></rect><rect x="375" y="58.178066037735874" height="17.087264150943383" width="5" fill="black"><title>Avola: 966</title></rect><rect x="375" y="80.26533018867926" height="18.714622641509436" width="5" fill="black"><title>Trapani: 1058</title></rect><rect x="375" y="103.9799528301887" height="18.909198113207538" width="5" fill="black"><title>Taormina: 1069</title></rect><rect x="375" y="127.88915094339623" height="20.165094339622613" width="5" fill="black"><title>Marsala: 1140</title></rect><rect x="375" y="153.05424528301884" height="21.7570754716981" width="5" fill="black"><title>Lipari: 1230</title></rect><rect x="375" y="179.81132075471695" height="21.91627358490564" width="5" fill="black"><title>San Vito Lo Capo: 1239</title></rect><rect x="375" y="206.72759433962258" height="22.5" width="5" fill="black"><title>Ragusa: 1272</title></rect><rect x="375" y="234.22759433962258" height="30.583726415094333" width="5" fill="black"><title>Noto: 1729</title></rect><rect x="375" y="269.8113207547169" height="30.689858490565996" width="5" fill="black"><title>Castellammare del Golfo: 1735</title></rect><rect x="0" y="32.5" height="49.492924528301884" width="5" fill="black"><title>Private room: 2798</title></rect><rect x="375" y="305.5011792452829" height="61.3266509433962" width="5" fill="black"><title>Siracusa: 3467</title></rect><rect x="375" y="371.8278301886791" height="75.47759433962261" width="5" fill="black"><title>Catania: 4267</title></rect><rect x="375" y="452.3054245283017" height="127.69457547169816" width="5" fill="black"><title>Palermo: 7219</title></rect><rect x="0" y="86.99292452830188" height="460.5070754716981" width="5" fill="black"><title>Entire home/apt: 26034</title></rect></g><g fill="none" stroke-opacity="1"><g style="mix-blend-mode: multiply;"><path d="M5,42.32606132075472C190,42.32606132075472,190,381.65389150943383,375,381.65389150943383" stroke="#ff7f0e" stroke-width="19.652122641509433"/><title>Private room → Catania: 1111</title></g><g style="mix-blend-mode: multiply;"><path d="M5,67.07252358490567C190,67.07252358490567,190,467.22582547169793,375,467.22582547169793" stroke="#ff7f0e" stroke-width="29.840801886792452"/><title>Private room → Palermo: 1687</title></g><g style="mix-blend-mode: multiply;"><path d="M5,93.82075471698113C190,93.82075471698113,190,6.827830188679245,375,6.827830188679245" stroke="#1f77b4" stroke-width="13.65566037735849"/><title>Entire home/apt → Modica: 772</title></g><g style="mix-blend-mode: multiply;"><path d="M5,107.8567216981132C190,107.8567216981132,190,25.863797169811317,375,25.863797169811317" stroke="#1f77b4" stroke-width="14.41627358490566"/><title>Entire home/apt → Scicli: 815</title></g><g style="mix-blend-mode: multiply;"><path d="M5,122.61792452830187C190,122.61792452830187,190,45.625,375,45.625" stroke="#1f77b4" stroke-width="15.106132075471697"/><title>Entire home/apt → Cefal: 854</title></g><g style="mix-blend-mode: multiply;"><path d="M5,138.7146226415094C190,138.7146226415094,190,66.72169811320757,375,66.72169811320757" stroke="#1f77b4" stroke-width="17.087264150943394"/><title>Entire home/apt → Avola: 966</title></g><g style="mix-blend-mode: multiply;"><path d="M5,156.61556603773582C190,156.61556603773582,190,89.62264150943398,375,89.62264150943398" stroke="#1f77b4" stroke-width="18.714622641509433"/><title>Entire home/apt → Trapani: 1058</title></g><g style="mix-blend-mode: multiply;"><path d="M5,175.4274764150943C190,175.4274764150943,190,113.43455188679246,375,113.43455188679246" stroke="#1f77b4" stroke-width="18.909198113207548"/><title>Entire home/apt → Taormina: 1069</title></g><g style="mix-blend-mode: multiply;"><path d="M5,194.96462264150938C190,194.96462264150938,190,137.97169811320754,375,137.97169811320754" stroke="#1f77b4" stroke-width="20.16509433962264"/><title>Entire home/apt → Marsala: 1140</title></g><g style="mix-blend-mode: multiply;"><path d="M5,215.92570754716976C190,215.92570754716976,190,163.9327830188679,375,163.9327830188679" stroke="#1f77b4" stroke-width="21.757075471698112"/><title>Entire home/apt → Lipari: 1230</title></g><g style="mix-blend-mode: multiply;"><path d="M5,237.76238207547163C190,237.76238207547163,190,190.76945754716976,375,190.76945754716976" stroke="#1f77b4" stroke-width="21.91627358490566"/><title>Entire home/apt → San Vito Lo Capo: 1239</title></g><g style="mix-blend-mode: multiply;"><path d="M5,259.9705188679245C190,259.9705188679245,190,217.97759433962258,375,217.97759433962258" stroke="#1f77b4" stroke-width="22.5"/><title>Entire home/apt → Ragusa: 1272</title></g><g style="mix-blend-mode: multiply;"><path d="M5,286.5123820754717C190,286.5123820754717,190,249.51945754716976,375,249.51945754716976" stroke="#1f77b4" stroke-width="30.58372641509434"/><title>Entire home/apt → Noto: 1729</title></g><g style="mix-blend-mode: multiply;"><path d="M5,317.1491745283019C190,317.1491745283019,190,285.15624999999994,375,285.15624999999994" stroke="#1f77b4" stroke-width="30.68985849056604"/><title>Entire home/apt → Castellammare del Golfo: 1735</title></g><g style="mix-blend-mode: multiply;"><path d="M5,363.157429245283C190,363.157429245283,190,336.164504716981,375,336.164504716981" stroke="#1f77b4" stroke-width="61.326650943396224"/><title>Entire home/apt → Siracusa: 3467</title></g><g style="mix-blend-mode: multiply;"><path d="M5,421.73349056603774C190,421.73349056603774,190,419.39268867924517,375,419.39268867924517" stroke="#1f77b4" stroke-width="55.825471698113205"/><title>Entire home/apt → Catania: 3156</title></g><g style="mix-blend-mode: multiply;"><path d="M5,498.5731132075472C190,498.5731132075472,190,531.0731132075471,375,531.0731132075471" stroke="#1f77b4" stroke-width="97.85377358490565"/><title>Entire home/apt → Palermo: 5532</title></g></g><g><text x="371" y="6.827830188679243" text-anchor="end"><tspan alignment-baseline="middle" x="371" style="font-family: Arial, sans-serif; font-size: 10px; fill: black; font-weight: bold;">Modica</tspan></text><text x="371" y="25.86379716981132" text-anchor="end"><tspan alignment-baseline="middle" x="371" style="font-family: Arial, sans-serif; font-size: 10px; fill: black; font-weight: bold;">Scicli</tspan></text><text x="371" y="45.625000000000014" text-anchor="end"><tspan alignment-baseline="middle" x="371" style="font-family: Arial, sans-serif; font-size: 10px; fill: black; font-weight: bold;">Cefal</tspan></text><text x="371" y="66.72169811320757" text-anchor="end"><tspan alignment-baseline="middle" x="371" style="font-family: Arial, sans-serif; font-size: 10px; fill: black; font-weight: bold;">Avola</tspan></text><text x="371" y="89.62264150943398" text-anchor="end"><tspan alignment-baseline="middle" x="371" style="font-family: Arial, sans-serif; font-size: 10px; fill: black; font-weight: bold;">Trapani</tspan></text><text x="371" y="113.43455188679246" text-anchor="end"><tspan alignment-baseline="middle" x="371" style="font-family: Arial, sans-serif; font-size: 10px; fill: black; font-weight: bold;">Taormina</tspan></text><text x="371" y="137.97169811320754" text-anchor="end"><tspan alignment-baseline="middle" x="371" style="font-family: Arial, sans-serif; font-size: 10px; fill: black; font-weight: bold;">Marsala</tspan></text><text x="371" y="163.9327830188679" text-anchor="end"><tspan alignment-baseline="middle" x="371" style="font-family: Arial, sans-serif; font-size: 10px; fill: black; font-weight: bold;">Lipari</tspan></text><text x="371" y="190.76945754716976" text-anchor="end"><tspan alignment-baseline="middle" x="371" style="font-family: Arial, sans-serif; font-size: 10px; fill: black; font-weight: bold;">San Vito Lo Capo</tspan></text><text x="371" y="217.97759433962258" text-anchor="end"><tspan alignment-baseline="middle" x="371" style="font-family: Arial, sans-serif; font-size: 10px; fill: black; font-weight: bold;">Ragusa</tspan></text><text x="371" y="249.51945754716974" text-anchor="end"><tspan alignment-baseline="middle" x="371" style="font-family: Arial, sans-serif; font-size: 10px; fill: black; font-weight: bold;">Noto</tspan></text><text x="371" y="285.1562499999999" text-anchor="end"><tspan alignment-baseline="middle" x="371" style="font-family: Arial, sans-serif; font-size: 10px; fill: black; font-weight: bold;">Castellammare del Golfo</tspan></text><text x="9" y="57.24646226415094" text-anchor="start"><tspan alignment-baseline="middle" x="9" style="font-family: Arial, sans-serif; font-size: 10px; fill: black; font-weight: bold;">Private room</tspan></text><text x="371" y="336.164504716981" text-anchor="end"><tspan alignment-baseline="middle" x="371" style="font-family: Arial, sans-serif; font-size: 10px; fill: black; font-weight: bold;">Siracusa</tspan></text><text x="371" y="409.56662735849045" text-anchor="end"><tspan alignment-baseline="middle" x="371" style="font-family: Arial, sans-serif; font-size: 10px; fill: black; font-weight: bold;">Catania</tspan></text><text x="371" y="516.1527122641508" text-anchor="end"><tspan alignment-baseline="middle" x="371" style="font-family: Arial, sans-serif; font-size: 10px; fill: black; font-weight: bold;">Palermo</tspan></text><text x="9" y="317.2464622641509" text-anchor="start"><tspan alignment-baseline="middle" x="9" style="font-family: Arial, sans-serif; font-size: 10px; fill: black; font-weight: bold;">Entire home/apt</tspan></text></g><g><text x="377.5" y="-4" text-anchor="middle" style="font-family: Arial, sans-serif; font-size: 12px; fill: rgb(123, 123, 123); font-weight: bold;">Barrio</text><text x="20" y="28.5" text-anchor="middle" style="font-family: Arial, sans-serif; font-size: 12px; fill: rgb(123, 123, 123); font-weight: bold;">Room Type</text></g></g></svg>